<mxfile host="app.diagrams.net" agent="Mozilla/5.0 (Windows NT 10.0; Win64; x64; rv:133.0) Gecko/20100101 Firefox/133.0" version="25.0.3">
  <diagram name="Page-1" id="AGgA34HAO7MxjlpKdsxk">
    <mxGraphModel dx="1050" dy="735" grid="1" gridSize="10" guides="1" tooltips="1" connect="1" arrows="1" fold="1" page="1" pageScale="1" pageWidth="1654" pageHeight="1169" math="0" shadow="0">
      <root>
        <mxCell id="0" />
        <mxCell id="1" parent="0" />
        <mxCell id="uNaxhdoiLbw7-kHuHbok-19" style="edgeStyle=none;rounded=0;orthogonalLoop=1;jettySize=auto;html=1;exitX=0.5;exitY=0;exitDx=0;exitDy=0;entryX=0.003;entryY=0.398;entryDx=0;entryDy=0;entryPerimeter=0;" parent="1" source="uNaxhdoiLbw7-kHuHbok-2" target="uNaxhdoiLbw7-kHuHbok-3" edge="1">
          <mxGeometry relative="1" as="geometry">
            <mxPoint x="354.66666666666674" y="230" as="targetPoint" />
            <Array as="points">
              <mxPoint x="355" y="219" />
            </Array>
          </mxGeometry>
        </mxCell>
        <mxCell id="uNaxhdoiLbw7-kHuHbok-64" value="&lt;font style=&quot;font-size: 14px;&quot;&gt;Notifies of data retrieval success/failure&lt;/font&gt;" style="edgeLabel;html=1;align=center;verticalAlign=middle;resizable=0;points=[];" parent="uNaxhdoiLbw7-kHuHbok-19" vertex="1" connectable="0">
          <mxGeometry x="0.2614" y="4" relative="1" as="geometry">
            <mxPoint x="1" as="offset" />
          </mxGeometry>
        </mxCell>
        <mxCell id="uNaxhdoiLbw7-kHuHbok-2" value="" style="rounded=0;whiteSpace=wrap;html=1;" parent="1" vertex="1">
          <mxGeometry x="70" y="540" width="570" height="340" as="geometry" />
        </mxCell>
        <mxCell id="uNaxhdoiLbw7-kHuHbok-18" style="edgeStyle=none;rounded=0;orthogonalLoop=1;jettySize=auto;html=1;entryX=0.35;entryY=0.004;entryDx=0;entryDy=0;entryPerimeter=0;" parent="1" target="uNaxhdoiLbw7-kHuHbok-2" edge="1">
          <mxGeometry relative="1" as="geometry">
            <mxPoint x="270" y="510" as="targetPoint" />
            <mxPoint x="840" y="160" as="sourcePoint" />
            <Array as="points">
              <mxPoint x="270" y="160" />
            </Array>
          </mxGeometry>
        </mxCell>
        <mxCell id="uNaxhdoiLbw7-kHuHbok-65" value="&lt;font style=&quot;font-size: 14px;&quot;&gt;Request database data/CRUD Operations&lt;/font&gt;" style="edgeLabel;html=1;align=center;verticalAlign=middle;resizable=0;points=[];" parent="uNaxhdoiLbw7-kHuHbok-18" vertex="1" connectable="0">
          <mxGeometry x="0.0567" relative="1" as="geometry">
            <mxPoint x="113" as="offset" />
          </mxGeometry>
        </mxCell>
        <mxCell id="uNaxhdoiLbw7-kHuHbok-21" style="edgeStyle=none;rounded=0;orthogonalLoop=1;jettySize=auto;html=1;exitX=0.4;exitY=0.002;exitDx=0;exitDy=0;entryX=0.5;entryY=1;entryDx=0;entryDy=0;exitPerimeter=0;" parent="1" source="uNaxhdoiLbw7-kHuHbok-5" target="uNaxhdoiLbw7-kHuHbok-3" edge="1">
          <mxGeometry relative="1" as="geometry">
            <mxPoint x="1165" y="559" as="targetPoint" />
          </mxGeometry>
        </mxCell>
        <mxCell id="uNaxhdoiLbw7-kHuHbok-71" value="alerts controller of user events" style="edgeLabel;html=1;align=center;verticalAlign=middle;resizable=0;points=[];fontSize=14;" parent="uNaxhdoiLbw7-kHuHbok-21" vertex="1" connectable="0">
          <mxGeometry x="0.0887" relative="1" as="geometry">
            <mxPoint y="-1" as="offset" />
          </mxGeometry>
        </mxCell>
        <mxCell id="uNaxhdoiLbw7-kHuHbok-3" value="" style="rounded=0;whiteSpace=wrap;html=1;" parent="1" vertex="1">
          <mxGeometry x="830" y="70" width="670" height="380" as="geometry" />
        </mxCell>
        <mxCell id="uNaxhdoiLbw7-kHuHbok-5" value="" style="rounded=0;whiteSpace=wrap;html=1;" parent="1" vertex="1">
          <mxGeometry x="880" y="560" width="710" height="600" as="geometry" />
        </mxCell>
        <mxCell id="uNaxhdoiLbw7-kHuHbok-8" value="" style="shape=partialRectangle;whiteSpace=wrap;html=1;top=0;left=0;fillColor=none;" parent="1" vertex="1">
          <mxGeometry x="70" y="540" width="120" height="60" as="geometry" />
        </mxCell>
        <mxCell id="uNaxhdoiLbw7-kHuHbok-9" value="&lt;font style=&quot;font-size: 24px;&quot;&gt;Model&lt;/font&gt;" style="text;html=1;align=center;verticalAlign=middle;whiteSpace=wrap;rounded=0;" parent="1" vertex="1">
          <mxGeometry x="70" y="540" width="120" height="60" as="geometry" />
        </mxCell>
        <mxCell id="uNaxhdoiLbw7-kHuHbok-10" value="" style="shape=partialRectangle;whiteSpace=wrap;html=1;top=0;left=0;fillColor=none;" parent="1" vertex="1">
          <mxGeometry x="830" y="70" width="120" height="60" as="geometry" />
        </mxCell>
        <mxCell id="uNaxhdoiLbw7-kHuHbok-11" value="&lt;font style=&quot;font-size: 22px;&quot;&gt;Controller&lt;/font&gt;" style="text;html=1;align=center;verticalAlign=middle;whiteSpace=wrap;rounded=0;" parent="1" vertex="1">
          <mxGeometry x="830" y="70" width="120" height="60" as="geometry" />
        </mxCell>
        <mxCell id="uNaxhdoiLbw7-kHuHbok-12" value="" style="shape=partialRectangle;whiteSpace=wrap;html=1;top=0;left=0;fillColor=none;" parent="1" vertex="1">
          <mxGeometry x="880" y="560" width="120" height="60" as="geometry" />
        </mxCell>
        <mxCell id="uNaxhdoiLbw7-kHuHbok-13" value="&lt;font style=&quot;font-size: 24px;&quot;&gt;View&lt;/font&gt;" style="text;html=1;align=center;verticalAlign=middle;whiteSpace=wrap;rounded=0;" parent="1" vertex="1">
          <mxGeometry x="880" y="560" width="120" height="60" as="geometry" />
        </mxCell>
        <mxCell id="uNaxhdoiLbw7-kHuHbok-14" value="" style="rounded=1;whiteSpace=wrap;html=1;" parent="1" vertex="1">
          <mxGeometry x="110" y="640" width="380" height="170" as="geometry" />
        </mxCell>
        <mxCell id="uNaxhdoiLbw7-kHuHbok-15" value="&lt;div style=&quot;font-size: 20px;&quot;&gt;&lt;font style=&quot;font-size: 20px;&quot;&gt;Relational&amp;nbsp;&lt;/font&gt;&lt;/div&gt;&lt;div style=&quot;font-size: 20px;&quot;&gt;&lt;font style=&quot;font-size: 20px;&quot;&gt;Database&lt;/font&gt;&lt;/div&gt;" style="strokeWidth=2;html=1;shape=mxgraph.flowchart.database;whiteSpace=wrap;" parent="1" vertex="1">
          <mxGeometry x="270" y="970" width="150" height="140" as="geometry" />
        </mxCell>
        <mxCell id="uNaxhdoiLbw7-kHuHbok-16" style="edgeStyle=none;rounded=0;orthogonalLoop=1;jettySize=auto;html=1;entryX=0.733;entryY=0.024;entryDx=0;entryDy=0;entryPerimeter=0;" parent="1" target="uNaxhdoiLbw7-kHuHbok-15" edge="1">
          <mxGeometry relative="1" as="geometry">
            <mxPoint x="380" y="880" as="sourcePoint" />
          </mxGeometry>
        </mxCell>
        <mxCell id="uNaxhdoiLbw7-kHuHbok-17" style="edgeStyle=none;rounded=0;orthogonalLoop=1;jettySize=auto;html=1;exitX=0.28;exitY=0.033;exitDx=0;exitDy=0;exitPerimeter=0;entryX=0.425;entryY=0.996;entryDx=0;entryDy=0;entryPerimeter=0;" parent="1" source="uNaxhdoiLbw7-kHuHbok-15" target="uNaxhdoiLbw7-kHuHbok-2" edge="1">
          <mxGeometry relative="1" as="geometry" />
        </mxCell>
        <mxCell id="uNaxhdoiLbw7-kHuHbok-20" style="edgeStyle=none;rounded=0;orthogonalLoop=1;jettySize=auto;html=1;exitX=0.162;exitY=0.995;exitDx=0;exitDy=0;entryX=0.5;entryY=0;entryDx=0;entryDy=0;exitPerimeter=0;" parent="1" source="uNaxhdoiLbw7-kHuHbok-3" target="uNaxhdoiLbw7-kHuHbok-13" edge="1">
          <mxGeometry relative="1" as="geometry">
            <mxPoint x="971" y="460" as="targetPoint" />
          </mxGeometry>
        </mxCell>
        <mxCell id="uNaxhdoiLbw7-kHuHbok-70" value="selects appropriate view" style="edgeLabel;html=1;align=center;verticalAlign=middle;resizable=0;points=[];fontSize=14;" parent="uNaxhdoiLbw7-kHuHbok-20" vertex="1" connectable="0">
          <mxGeometry x="0.0589" y="4" relative="1" as="geometry">
            <mxPoint as="offset" />
          </mxGeometry>
        </mxCell>
        <mxCell id="uNaxhdoiLbw7-kHuHbok-22" style="edgeStyle=none;rounded=0;orthogonalLoop=1;jettySize=auto;html=1;entryX=0.7;entryY=0.004;entryDx=0;entryDy=0;entryPerimeter=0;exitX=0.815;exitY=0.998;exitDx=0;exitDy=0;exitPerimeter=0;" parent="1" source="uNaxhdoiLbw7-kHuHbok-3" target="uNaxhdoiLbw7-kHuHbok-5" edge="1">
          <mxGeometry relative="1" as="geometry">
            <mxPoint x="1375" y="560" as="sourcePoint" />
          </mxGeometry>
        </mxCell>
        <mxCell id="uNaxhdoiLbw7-kHuHbok-81" value="returns data to be displayed" style="edgeLabel;html=1;align=center;verticalAlign=middle;resizable=0;points=[];fontSize=14;" parent="uNaxhdoiLbw7-kHuHbok-22" vertex="1" connectable="0">
          <mxGeometry x="-0.1066" relative="1" as="geometry">
            <mxPoint as="offset" />
          </mxGeometry>
        </mxCell>
        <mxCell id="uNaxhdoiLbw7-kHuHbok-28" value="&lt;font style=&quot;font-size: 18px;&quot;&gt;HTML Views&lt;/font&gt;" style="rounded=0;whiteSpace=wrap;html=1;" parent="1" vertex="1">
          <mxGeometry x="910" y="630" width="490" height="30" as="geometry" />
        </mxCell>
        <mxCell id="uNaxhdoiLbw7-kHuHbok-29" value="&lt;font style=&quot;font-size: 19px;&quot;&gt;User&lt;/font&gt;" style="rounded=0;whiteSpace=wrap;html=1;" parent="1" vertex="1">
          <mxGeometry x="910" y="660" width="160" height="60" as="geometry" />
        </mxCell>
        <mxCell id="uNaxhdoiLbw7-kHuHbok-30" value="&lt;font style=&quot;font-size: 19px;&quot;&gt;Provider&lt;/font&gt;" style="rounded=0;whiteSpace=wrap;html=1;" parent="1" vertex="1">
          <mxGeometry x="1070" y="660" width="170" height="60" as="geometry" />
        </mxCell>
        <mxCell id="uNaxhdoiLbw7-kHuHbok-31" value="&lt;font style=&quot;font-size: 19px;&quot;&gt;Admin&lt;/font&gt;" style="rounded=0;whiteSpace=wrap;html=1;" parent="1" vertex="1">
          <mxGeometry x="1240" y="660" width="160" height="60" as="geometry" />
        </mxCell>
        <mxCell id="uNaxhdoiLbw7-kHuHbok-32" value="" style="rounded=0;whiteSpace=wrap;html=1;" parent="1" vertex="1">
          <mxGeometry x="910" y="720" width="160" height="340" as="geometry" />
        </mxCell>
        <mxCell id="uNaxhdoiLbw7-kHuHbok-33" value="" style="rounded=0;whiteSpace=wrap;html=1;" parent="1" vertex="1">
          <mxGeometry x="1070" y="720" width="170" height="340" as="geometry" />
        </mxCell>
        <mxCell id="uNaxhdoiLbw7-kHuHbok-34" value="" style="rounded=0;whiteSpace=wrap;html=1;" parent="1" vertex="1">
          <mxGeometry x="1240" y="720" width="160" height="340" as="geometry" />
        </mxCell>
        <mxCell id="uNaxhdoiLbw7-kHuHbok-37" value="&lt;div&gt;&lt;font style=&quot;font-size: 15px;&quot;&gt;&amp;nbsp;Bid view&lt;/font&gt;&lt;/div&gt;" style="rounded=1;whiteSpace=wrap;html=1;" parent="1" vertex="1">
          <mxGeometry x="945" y="830" width="90" height="30" as="geometry" />
        </mxCell>
        <mxCell id="uNaxhdoiLbw7-kHuHbok-40" value="&lt;font style=&quot;font-size: 15px;&quot;&gt;&amp;nbsp;Profile view&lt;/font&gt;" style="rounded=1;whiteSpace=wrap;html=1;" parent="1" vertex="1">
          <mxGeometry x="945" y="730" width="90" height="30" as="geometry" />
        </mxCell>
        <mxCell id="uNaxhdoiLbw7-kHuHbok-41" value="&lt;font style=&quot;font-size: 15px;&quot;&gt;&amp;nbsp;Past Bids view&lt;/font&gt;" style="rounded=1;whiteSpace=wrap;html=1;" parent="1" vertex="1">
          <mxGeometry x="945" y="930" width="90" height="30" as="geometry" />
        </mxCell>
        <mxCell id="uNaxhdoiLbw7-kHuHbok-42" value="&lt;font style=&quot;font-size: 15px;&quot;&gt;&amp;nbsp;Other users view&lt;/font&gt;" style="rounded=1;whiteSpace=wrap;html=1;" parent="1" vertex="1">
          <mxGeometry x="945" y="780" width="90" height="30" as="geometry" />
        </mxCell>
        <mxCell id="uNaxhdoiLbw7-kHuHbok-43" value="&lt;font style=&quot;font-size: 15px;&quot;&gt;&amp;nbsp;Other user reviews view&lt;/font&gt;" style="rounded=1;whiteSpace=wrap;html=1;" parent="1" vertex="1">
          <mxGeometry x="945" y="980" width="90" height="30" as="geometry" />
        </mxCell>
        <mxCell id="uNaxhdoiLbw7-kHuHbok-44" value="&lt;font style=&quot;font-size: 15px;&quot;&gt;&amp;nbsp;Place Bid view&lt;/font&gt;" style="rounded=1;whiteSpace=wrap;html=1;" parent="1" vertex="1">
          <mxGeometry x="945" y="880" width="90" height="30" as="geometry" />
        </mxCell>
        <mxCell id="uNaxhdoiLbw7-kHuHbok-48" value="&lt;font style=&quot;font-size: 15px;&quot;&gt;&amp;nbsp;Customer Review view&lt;/font&gt;" style="rounded=1;whiteSpace=wrap;html=1;" parent="1" vertex="1">
          <mxGeometry x="1110" y="730" width="90" height="30" as="geometry" />
        </mxCell>
        <mxCell id="uNaxhdoiLbw7-kHuHbok-49" value="&lt;font style=&quot;font-size: 15px;&quot;&gt;&amp;nbsp;My Auctions view&lt;/font&gt;" style="rounded=1;whiteSpace=wrap;html=1;" parent="1" vertex="1">
          <mxGeometry x="1110" y="780" width="90" height="30" as="geometry" />
        </mxCell>
        <mxCell id="uNaxhdoiLbw7-kHuHbok-50" value="&lt;font style=&quot;font-size: 15px;&quot;&gt;&amp;nbsp;Register auction view&lt;/font&gt;" style="rounded=1;whiteSpace=wrap;html=1;" parent="1" vertex="1">
          <mxGeometry x="1110" y="830" width="90" height="30" as="geometry" />
        </mxCell>
        <mxCell id="uNaxhdoiLbw7-kHuHbok-51" value="&lt;font style=&quot;font-size: 15px;&quot;&gt;&amp;nbsp;Edit auction view&lt;/font&gt;" style="rounded=1;whiteSpace=wrap;html=1;" parent="1" vertex="1">
          <mxGeometry x="1110" y="875" width="90" height="30" as="geometry" />
        </mxCell>
        <mxCell id="uNaxhdoiLbw7-kHuHbok-53" value="&lt;font style=&quot;font-size: 15px;&quot;&gt;&amp;nbsp;Manage Listing view&lt;/font&gt;" style="rounded=1;whiteSpace=wrap;html=1;" parent="1" vertex="1">
          <mxGeometry x="1270" y="730" width="90" height="30" as="geometry" />
        </mxCell>
        <mxCell id="uNaxhdoiLbw7-kHuHbok-54" value="&lt;font style=&quot;font-size: 15px;&quot;&gt;&amp;nbsp;Manage User view&lt;/font&gt;" style="rounded=1;whiteSpace=wrap;html=1;" parent="1" vertex="1">
          <mxGeometry x="1270" y="770" width="90" height="30" as="geometry" />
        </mxCell>
        <mxCell id="uNaxhdoiLbw7-kHuHbok-55" value="&lt;font style=&quot;font-size: 15px;&quot;&gt;&amp;nbsp;Admin dashboard view&lt;/font&gt;" style="rounded=1;whiteSpace=wrap;html=1;" parent="1" vertex="1">
          <mxGeometry x="1270" y="810" width="90" height="50" as="geometry" />
        </mxCell>
        <mxCell id="uNaxhdoiLbw7-kHuHbok-56" value="&lt;font style=&quot;font-size: 20px;&quot;&gt;user&lt;/font&gt;" style="rounded=1;whiteSpace=wrap;html=1;" parent="1" vertex="1">
          <mxGeometry x="140" y="650" width="100" height="50" as="geometry" />
        </mxCell>
        <mxCell id="uNaxhdoiLbw7-kHuHbok-59" value="&lt;div&gt;&lt;font style=&quot;font-size: 20px;&quot;&gt;reply&lt;/font&gt;&lt;/div&gt;" style="rounded=1;whiteSpace=wrap;html=1;" parent="1" vertex="1">
          <mxGeometry x="250" y="650" width="100" height="50" as="geometry" />
        </mxCell>
        <mxCell id="uNaxhdoiLbw7-kHuHbok-60" value="&lt;font style=&quot;font-size: 20px;&quot;&gt;bid&lt;/font&gt;" style="rounded=1;whiteSpace=wrap;html=1;" parent="1" vertex="1">
          <mxGeometry x="360" y="650" width="100" height="50" as="geometry" />
        </mxCell>
        <mxCell id="uNaxhdoiLbw7-kHuHbok-61" value="&lt;font style=&quot;font-size: 20px;&quot;&gt;auction&lt;/font&gt;" style="rounded=1;whiteSpace=wrap;html=1;" parent="1" vertex="1">
          <mxGeometry x="140" y="722.5" width="100" height="45" as="geometry" />
        </mxCell>
        <mxCell id="uNaxhdoiLbw7-kHuHbok-62" value="&lt;font style=&quot;font-size: 20px;&quot;&gt;review&lt;/font&gt;" style="rounded=1;whiteSpace=wrap;html=1;" parent="1" vertex="1">
          <mxGeometry x="250" y="720" width="100" height="45" as="geometry" />
        </mxCell>
        <mxCell id="uNaxhdoiLbw7-kHuHbok-63" value="&lt;font style=&quot;font-size: 17px;&quot;&gt;CRUD Operations and database connections&lt;/font&gt;" style="text;html=1;align=center;verticalAlign=middle;whiteSpace=wrap;rounded=0;" parent="1" vertex="1">
          <mxGeometry x="320" y="570" width="270" height="30" as="geometry" />
        </mxCell>
        <mxCell id="uNaxhdoiLbw7-kHuHbok-66" value="Security Controller" style="swimlane;fontStyle=0;childLayout=stackLayout;horizontal=1;startSize=30;horizontalStack=0;resizeParent=1;resizeParentMax=0;resizeLast=0;collapsible=1;marginBottom=0;whiteSpace=wrap;html=1;fontSize=14;" parent="1" vertex="1">
          <mxGeometry x="860" y="170" width="190" height="70" as="geometry" />
        </mxCell>
        <mxCell id="uNaxhdoiLbw7-kHuHbok-67" value="&lt;div style=&quot;font-size: 14px;&quot; align=&quot;center&quot;&gt;Handles login, manages views based on user type&lt;br style=&quot;font-size: 14px;&quot;&gt;&lt;/div&gt;" style="text;strokeColor=none;fillColor=none;align=left;verticalAlign=middle;spacingLeft=4;spacingRight=4;overflow=hidden;points=[[0,0.5],[1,0.5]];portConstraint=eastwest;rotatable=0;whiteSpace=wrap;html=1;fontSize=14;" parent="uNaxhdoiLbw7-kHuHbok-66" vertex="1">
          <mxGeometry y="30" width="190" height="40" as="geometry" />
        </mxCell>
        <mxCell id="uNaxhdoiLbw7-kHuHbok-72" value="User Controller" style="swimlane;fontStyle=0;childLayout=stackLayout;horizontal=1;startSize=30;horizontalStack=0;resizeParent=1;resizeParentMax=0;resizeLast=0;collapsible=1;marginBottom=0;whiteSpace=wrap;html=1;fontSize=14;" parent="1" vertex="1">
          <mxGeometry x="1080" y="170" width="190" height="70" as="geometry" />
        </mxCell>
        <mxCell id="uNaxhdoiLbw7-kHuHbok-73" value="&lt;div style=&quot;font-size: 14px;&quot; align=&quot;center&quot;&gt;Handles user data interactions&lt;br style=&quot;font-size: 14px;&quot;&gt;&lt;/div&gt;" style="text;strokeColor=none;fillColor=none;align=left;verticalAlign=middle;spacingLeft=4;spacingRight=4;overflow=hidden;points=[[0,0.5],[1,0.5]];portConstraint=eastwest;rotatable=0;whiteSpace=wrap;html=1;fontSize=14;" parent="uNaxhdoiLbw7-kHuHbok-72" vertex="1">
          <mxGeometry y="30" width="190" height="40" as="geometry" />
        </mxCell>
        <mxCell id="uNaxhdoiLbw7-kHuHbok-75" value="&lt;div&gt;Auction Controller&lt;/div&gt;" style="swimlane;fontStyle=0;childLayout=stackLayout;horizontal=1;startSize=30;horizontalStack=0;resizeParent=1;resizeParentMax=0;resizeLast=0;collapsible=1;marginBottom=0;whiteSpace=wrap;html=1;fontSize=14;" parent="1" vertex="1">
          <mxGeometry x="860" y="260" width="190" height="70" as="geometry" />
        </mxCell>
        <mxCell id="uNaxhdoiLbw7-kHuHbok-76" value="&lt;div style=&quot;font-size: 14px;&quot; align=&quot;center&quot;&gt;Handles auction data interactions&lt;br style=&quot;font-size: 14px;&quot;&gt;&lt;/div&gt;" style="text;strokeColor=none;fillColor=none;align=left;verticalAlign=middle;spacingLeft=4;spacingRight=4;overflow=hidden;points=[[0,0.5],[1,0.5]];portConstraint=eastwest;rotatable=0;whiteSpace=wrap;html=1;fontSize=14;" parent="uNaxhdoiLbw7-kHuHbok-75" vertex="1">
          <mxGeometry y="30" width="190" height="40" as="geometry" />
        </mxCell>
        <mxCell id="uNaxhdoiLbw7-kHuHbok-77" value="Bid Controller" style="swimlane;fontStyle=0;childLayout=stackLayout;horizontal=1;startSize=30;horizontalStack=0;resizeParent=1;resizeParentMax=0;resizeLast=0;collapsible=1;marginBottom=0;whiteSpace=wrap;html=1;fontSize=14;" parent="1" vertex="1">
          <mxGeometry x="1300" y="170" width="190" height="70" as="geometry" />
        </mxCell>
        <mxCell id="uNaxhdoiLbw7-kHuHbok-78" value="&lt;div style=&quot;font-size: 14px;&quot; align=&quot;center&quot;&gt;Handles bid data interactions&lt;br style=&quot;font-size: 14px;&quot;&gt;&lt;/div&gt;" style="text;strokeColor=none;fillColor=none;align=left;verticalAlign=middle;spacingLeft=4;spacingRight=4;overflow=hidden;points=[[0,0.5],[1,0.5]];portConstraint=eastwest;rotatable=0;whiteSpace=wrap;html=1;fontSize=14;" parent="uNaxhdoiLbw7-kHuHbok-77" vertex="1">
          <mxGeometry y="30" width="190" height="40" as="geometry" />
        </mxCell>
        <mxCell id="uNaxhdoiLbw7-kHuHbok-79" value="Review Controller" style="swimlane;fontStyle=0;childLayout=stackLayout;horizontal=1;startSize=30;horizontalStack=0;resizeParent=1;resizeParentMax=0;resizeLast=0;collapsible=1;marginBottom=0;whiteSpace=wrap;html=1;fontSize=14;" parent="1" vertex="1">
          <mxGeometry x="1080" y="260" width="190" height="70" as="geometry" />
        </mxCell>
        <mxCell id="uNaxhdoiLbw7-kHuHbok-80" value="&lt;div style=&quot;font-size: 14px;&quot; align=&quot;center&quot;&gt;Handles review data interactions&lt;br style=&quot;font-size: 14px;&quot;&gt;&lt;/div&gt;" style="text;strokeColor=none;fillColor=none;align=left;verticalAlign=middle;spacingLeft=4;spacingRight=4;overflow=hidden;points=[[0,0.5],[1,0.5]];portConstraint=eastwest;rotatable=0;whiteSpace=wrap;html=1;fontSize=14;" parent="uNaxhdoiLbw7-kHuHbok-79" vertex="1">
          <mxGeometry y="30" width="190" height="40" as="geometry" />
        </mxCell>
        <mxCell id="uNaxhdoiLbw7-kHuHbok-84" style="edgeStyle=none;rounded=0;orthogonalLoop=1;jettySize=auto;html=1;" parent="1" edge="1">
          <mxGeometry relative="1" as="geometry">
            <mxPoint x="976" y="1064" as="targetPoint" />
            <mxPoint x="1471" y="1120" as="sourcePoint" />
            <Array as="points">
              <mxPoint x="976" y="1120" />
            </Array>
          </mxGeometry>
        </mxCell>
        <mxCell id="uNaxhdoiLbw7-kHuHbok-82" value="Actor" style="shape=umlActor;verticalLabelPosition=bottom;verticalAlign=top;html=1;outlineConnect=0;" parent="1" vertex="1">
          <mxGeometry x="1490" y="1020" width="60" height="110" as="geometry" />
        </mxCell>
        <mxCell id="uNaxhdoiLbw7-kHuHbok-85" value="" style="endArrow=classic;html=1;rounded=0;entryX=0.5;entryY=1;entryDx=0;entryDy=0;" parent="1" target="uNaxhdoiLbw7-kHuHbok-33" edge="1">
          <mxGeometry width="50" height="50" relative="1" as="geometry">
            <mxPoint x="1155" y="1116" as="sourcePoint" />
            <mxPoint x="1150" y="900" as="targetPoint" />
          </mxGeometry>
        </mxCell>
        <mxCell id="uNaxhdoiLbw7-kHuHbok-86" value="" style="endArrow=classic;html=1;rounded=0;entryX=0.5;entryY=1;entryDx=0;entryDy=0;" parent="1" target="uNaxhdoiLbw7-kHuHbok-34" edge="1">
          <mxGeometry width="50" height="50" relative="1" as="geometry">
            <mxPoint x="1320" y="1120" as="sourcePoint" />
            <mxPoint x="1150" y="860" as="targetPoint" />
          </mxGeometry>
        </mxCell>
        <mxCell id="uNaxhdoiLbw7-kHuHbok-87" value="&lt;font style=&quot;font-size: 14px;&quot;&gt;User interacts with view&amp;nbsp; according to their account type. A provider can see anything a user can see.&lt;br&gt;&lt;/font&gt;" style="text;html=1;align=center;verticalAlign=middle;whiteSpace=wrap;rounded=0;" parent="1" vertex="1">
          <mxGeometry x="970" y="1127" width="490" height="30" as="geometry" />
        </mxCell>
        <mxCell id="PaXvezEdl7FZpSmKjF9p-1" value="Reply Controller" style="swimlane;fontStyle=0;childLayout=stackLayout;horizontal=1;startSize=30;horizontalStack=0;resizeParent=1;resizeParentMax=0;resizeLast=0;collapsible=1;marginBottom=0;whiteSpace=wrap;html=1;fontSize=14;" vertex="1" parent="1">
          <mxGeometry x="1300" y="260" width="190" height="70" as="geometry" />
        </mxCell>
        <mxCell id="PaXvezEdl7FZpSmKjF9p-2" value="&lt;div style=&quot;font-size: 14px;&quot; align=&quot;center&quot;&gt;Handles reply data interactions&lt;br style=&quot;font-size: 14px;&quot;&gt;&lt;/div&gt;" style="text;strokeColor=none;fillColor=none;align=left;verticalAlign=middle;spacingLeft=4;spacingRight=4;overflow=hidden;points=[[0,0.5],[1,0.5]];portConstraint=eastwest;rotatable=0;whiteSpace=wrap;html=1;fontSize=14;" vertex="1" parent="PaXvezEdl7FZpSmKjF9p-1">
          <mxGeometry y="30" width="190" height="40" as="geometry" />
        </mxCell>
        <mxCell id="PaXvezEdl7FZpSmKjF9p-3" value="&lt;font style=&quot;font-size: 20px;&quot;&gt;review completed&lt;br&gt;&lt;/font&gt;" style="rounded=1;whiteSpace=wrap;html=1;" vertex="1" parent="1">
          <mxGeometry x="360" y="720" width="100" height="45" as="geometry" />
        </mxCell>
        <mxCell id="PaXvezEdl7FZpSmKjF9p-4" value="Admin Controller" style="swimlane;fontStyle=0;childLayout=stackLayout;horizontal=1;startSize=30;horizontalStack=0;resizeParent=1;resizeParentMax=0;resizeLast=0;collapsible=1;marginBottom=0;whiteSpace=wrap;html=1;fontSize=14;" vertex="1" parent="1">
          <mxGeometry x="1070" y="350" width="190" height="70" as="geometry" />
        </mxCell>
        <mxCell id="PaXvezEdl7FZpSmKjF9p-5" value="&lt;div style=&quot;font-size: 14px;&quot; align=&quot;center&quot;&gt;Handles data of users and auctions&lt;br style=&quot;font-size: 14px;&quot;&gt;&lt;/div&gt;" style="text;strokeColor=none;fillColor=none;align=left;verticalAlign=middle;spacingLeft=4;spacingRight=4;overflow=hidden;points=[[0,0.5],[1,0.5]];portConstraint=eastwest;rotatable=0;whiteSpace=wrap;html=1;fontSize=14;" vertex="1" parent="PaXvezEdl7FZpSmKjF9p-4">
          <mxGeometry y="30" width="190" height="40" as="geometry" />
        </mxCell>
      </root>
    </mxGraphModel>
  </diagram>
</mxfile>
